P3
40 22
255
236 244 255
236 244 255
236 244 255
237 244 255
237 244 255
237 244 255
237 244 255
237 245 255
237 245 255
227 229 227
209 200 163
196 184 125
188 177 114
182 175 114
178 173 114
175 171 114
172 170 114
170 169 114
169 169 114
168 168 114
168 168 114
169 169 114
170 169 114
172 170 114
175 171 114
178 173 114
183 175 114
187 177 114
195 182 118
215 208 180
228 229 226
236 243 252
237 245 255
237 244 255
237 244 255
237 244 255
236 244 255
236 244 255
236 244 255
236 244 255
237 244 255
237 244 255
237 245 255
237 245 255
237 245 255
238 245 255
238 245 255
236 244 254
233 237 242
211 203 169
196 182 118
188 178 114
183 175 114
178 173 114
174 171 114
171 170 114
169 169 114
167 168 114
166 167 114
165 167 114
165 167 114
166 167 114
167 168 114
168 168 114
171 170 114
174 171 114
178 173 114
182 175 114
187 177 114
195 181 116
210 200 160
228 230 228
237 244 254
238 245 255
238 245 255
237 245 255
237 245 255
237 245 255
237 244 255
237 244 255
237 245 255
238 245 255
238 245 255
238 245 255
238 245 255
238 245 255
238 245 255
234 238 241
215 206 172
196 181 116
189 178 114
183 175 114
179 174 114
175 171 114
172 170 114
169 169 114
167 168 114
165 167 114
164 166 114
163 166 114
163 166 114
164 167 114
165 167 114
167 168 114
168 168 114
172 170 114
175 171 114
179 174 114
183 175 114
189 178 114
195 181 114
214 206 176
235 240 244
238 245 255
238 245 255
238 245 255
238 245 255
238 245 255
238 245 255
238 245 255
238 245 255
238 245 255
238 245 255
239 245 255
239 245 255
239 246 255
238 245 253
225 224 212
203 189 129
193 180 114
186 177 114
182 175 114
177 172 114
173 171 114
170 169 114
167 168 114
165 167 114
164 166 114
163 166 114
162 166 114
162 166 114
163 166 114
164 166 114
166 167 114
167 168 114
170 169 114
173 171 114
177 172 114
181 174 114
186 177 114
192 180 114
202 187 127
225 222 209
237 243 250
239 246 255
239 245 255
238 245 255
238 245 255
238 245 255
238 245 255
239 246 255
239 246 255
239 246 255
239 246 255
239 246 255
239 246 255
233 234 232
212 201 158
197 182 114
190 179 114
185 176 114
180 174 114
176 172 114
172 170 114
170 169 114
167 168 114
165 167 114
163 166 114
162 166 114
162 166 114
162 166 114
162 166 114
163 166 114
165 167 114
167 168 114
169 169 114
172 170 114
176 172 114
180 174 114
185 176 114
190 179 114
198 183 116
213 201 158
233 235 233
239 246 255
239 246 255
239 246 255
239 246 255
239 246 255
239 246 255
239 246 255
239 246 255
239 246 255
240 246 255
240 246 255
240 245 253
227 224 209
202 185 116
195 181 114
190 178 114
184 176 114
180 174 114
176 172 114
173 170 114
169 169 114
167 168 114
165 167 114
164 166 114
163 166 114
163 166 114
162 166 114
163 166 114
164 166 114
165 167 114
167 168 114
170 169 114
172 170 114
176 172 114
179 174 114
184 176 114
189 178 114
196 181 114
204 188 125
225 220 202
240 246 254
240 246 255
240 246 255
240 246 255
239 246 255
239 246 255
240 246 255
240 246 255
240 246 255
240 247 255
240 247 255
237 240 243
218 208 171
202 184 114
193 180 114
189 178 114
184 176 114
180 174 114
176 172 114
173 170 114
170 169 114
168 168 114
166 167 114
165 167 114
164 167 114
164 166 114
164 166 114
164 167 114
165 167 114
166 167 114
168 168 114
171 169 114
173 171 114
176 172 114
180 174 114
184 176 114
189 178 114
194 180 114
200 184 114
217 206 168
239 245 251
240 247 255
240 246 255
240 246 255
240 246 255
240 246 255
240 247 255
241 247 255
241 247 255
241 247 255
241 247 255
233 233 228
212 197 146
201 184 114
194 180 114
189 178 114
185 176 114
181 174 114
177 172 114
175 171 114
172 170 114
170 169 114
168 168 114
166 168 114
165 167 114
165 167 114
165 167 114
165 167 114
167 168 114
168 168 114
169 169 114
172 170 114
174 171 114
177 172 114
180 174 114
185 176 114
189 178 114
195 181 114
200 183 114
212 197 144
235 237 235
241 247 255
241 247 255
241 247 255
241 247 255
240 247 255
241 247 255
241 247 255
241 247 255
241 247 255
242 247 255
230 227 215
210 192 131
200 183 114
195 181 114
191 179 114
186 177 114
182 175 114
179 173 114
176 172 114
173 171 114
171 170 114
170 169 114
169 169 114
168 168 114
167 168 114
167 168 114
168 168 114
169 169 114
170 169 114
172 170 114
174 171 114
176 172 114
179 173 114
182 175 114
186 177 114
190 179 114
195 181 114
200 184 114
209 190 123
233 233 227
241 247 254
242 247 255
241 247 255
241 247 255
241 247 255
242 247 255
242 247 255
242 247 255
242 248 255
242 247 254
229 223 203
207 187 114
202 184 114
196 181 114
191 179 114
188 177 114
184 176 114
181 174 114
178 173 114
176 172 114
174 171 114
172 170 114
172 170 114
171 170 114
170 169 114
170 169 114
170 169 114
171 170 114
173 170 114
174 171 114
176 172 114
178 173 114
181 174 114
184 176 114
188 178 114
191 179 114
196 181 114
201 184 114
208 189 121
228 224 210
241 246 252
242 248 255
242 247 255
242 247 255
242 247 255
242 248 255
242 248 255
242 248 255
243 248 255
242 246 251
225 219 200
209 189 118
203 185 114
198 183 114
194 180 114
189 178 114
186 177 114
183 175 114
181 174 114
179 173 114
176 172 114
176 172 114
174 171 114
173 171 114
173 171 114
173 171 114
173 171 114
174 171 114
175 172 114
177 172 114
179 173 114
181 174 114
184 176 114
186 177 114
190 178 114
194 180 114
198 182 114
203 185 114
209 189 118
230 226 212
242 247 253
243 248 255
243 248 255
242 248 255
242 248 255
243 248 255
243 248 255
243 248 255
243 248 255
242 247 253
231 225 206
211 190 121
204 186 114
200 183 114
196 182 114
192 180 114
189 178 114
186 177 114
184 176 114
181 174 114
180 174 114
179 173 114
177 173 114
177 172 114
176 172 114
176 172 114
177 172 114
177 173 114
178 173 114
180 174 114
182 175 114
184 176 114
186 177 114
189 178 114
192 180 114
196 181 114
200 183 114
205 186 114
210 189 116
227 220 201
242 247 253
243 248 255
243 248 255
243 248 255
243 248 255
243 248 255
243 248 255
244 248 255
244 248 255
244 248 253
233 227 211
211 190 116
206 187 114
202 184 114
198 183 114
195 181 114
192 179 114
190 178 114
187 177 114
185 176 114
183 175 114
182 175 114
181 174 114
181 174 114
180 174 114
180 174 114
181 174 114
181 174 114
182 175 114
183 175 114
185 176 114
187 177 114
190 178 114
193 180 114
195 181 114
199 183 114
202 185 114
206 186 114
209 188 115
231 225 208
243 247 252
244 249 255
244 248 255
243 248 255
243 248 255
244 249 255
244 249 255
244 249 255
244 249 255
244 248 254
231 226 209
217 197 135
209 188 114
204 186 114
201 184 114
198 182 114
194 181 114
193 180 114
191 179 114
189 178 114
187 177 114
186 177 114
185 176 114
184 176 114
184 176 114
184 176 114
184 176 114
184 176 114
185 176 114
187 177 114
189 178 114
191 179 114
193 180 114
196 181 114
199 183 114
202 184 114
206 186 114
209 188 114
213 191 116
236 233 225
245 249 255
244 249 255
244 249 255
244 249 255
244 248 255
244 249 255
244 249 255
245 249 255
245 249 255
245 249 255
237 234 224
217 195 131
211 189 114
208 187 114
205 186 114
202 184 114
199 183 114
196 182 114
195 181 114
192 180 114
190 179 114
190 179 114
189 178 114
187 177 114
187 177 114
188 177 114
188 178 114
189 178 114
190 178 114
191 179 114
192 180 114
195 181 114
196 182 114
198 182 114
202 184 114
204 186 114
208 187 114
212 189 114
219 198 137
238 236 229
245 249 255
245 249 255
245 249 255
244 249 255
244 249 255
245 249 255
245 249 255
245 249 255
245 250 255
246 250 255
243 244 243
221 204 157
215 191 114
210 189 114
207 187 114
205 186 114
202 185 114
200 183 114
198 183 114
196 182 114
195 181 114
194 181 114
194 180 114
192 180 114
192 179 114
192 179 114
192 180 114
193 180 114
195 181 114
195 181 114
196 182 114
198 182 114
200 183 114
203 185 114
205 186 114
209 188 114
211 189 114
215 191 116
223 205 156
242 244 247
246 250 255
245 249 255
245 249 255
245 249 255
245 249 255
245 249 255
245 249 255
246 250 255
246 250 255
246 250 255
246 249 253
234 226 207
218 195 126
214 190 114
211 189 114
208 188 114
206 186 114
204 185 114
202 184 114
200 184 114
199 183 114
197 182 114
197 182 114
197 182 114
196 181 114
197 182 114
197 182 114
198 182 114
198 183 114
199 183 114
201 184 114
202 184 114
204 185 114
206 186 114
209 188 114
211 189 114
214 190 114
218 194 123
234 225 202
246 249 254
246 250 255
246 250 255
246 250 255
246 250 255
245 249 255
246 250 255
246 250 255
246 250 255
246 250 255
247 250 255
247 250 255
243 243 241
223 203 147
217 192 114
215 191 114
213 190 114
210 188 114
208 187 114
206 186 114
205 186 114
203 185 114
202 185 114
202 184 114
201 184 114
201 184 114
200 184 114
200 184 114
202 184 114
202 185 114
203 185 114
204 185 114
206 186 114
208 187 114
210 188 114
212 189 114
214 190 114
217 192 114
224 203 146
243 244 244
247 250 255
246 250 255
246 250 255
246 250 255
246 250 255
246 250 255
246 250 255
246 250 255
247 250 255
247 250 255
247 250 255
247 251 255
246 248 249
236 226 203
221 196 125
218 192 114
216 191 114
213 190 114
212 189 114
210 188 114
209 188 114
208 187 114
206 187 114
206 186 114
206 186 114
205 186 114
204 185 114
206 186 114
206 186 114
206 187 114
208 187 114
208 187 114
210 189 114
211 189 114
214 190 114
216 191 114
218 192 114
222 199 133
235 227 205
245 247 249
247 251 255
247 250 255
247 250 255
247 250 255
246 250 255
246 250 255
247 250 255
247 250 255
247 250 255
247 251 255
247 251 255
248 251 255
248 251 255
244 245 244
231 216 179
221 194 114
219 193 114
217 192 114
216 191 114
214 190 114
213 190 114
211 189 114
211 189 114
210 189 114
209 188 114
210 188 114
209 188 114
210 189 114
210 188 114
210 189 114
212 189 114
213 190 114
214 191 114
215 191 114
217 192 114
219 193 114
221 195 116
229 215 178
245 246 246
248 251 255
248 251 255
248 251 255
247 251 255
247 250 255
247 250 255
247 250 255
247 251 255
247 251 255
247 251 255
248 251 255
248 251 255
248 251 255
248 251 255
248 251 255
244 242 235
229 212 167
220 192 113
221 194 114
219 193 114
218 192 114
217 192 114
215 191 114
215 191 114
214 190 114
214 190 114
214 190 114
214 190 114
214 191 114
215 191 114
215 191 114
216 191 114
217 192 114
218 193 114
219 193 114
221 194 114
222 194 114
229 211 166
244 243 240
248 251 255
248 251 255
248 251 255
248 251 255
248 251 255
248 251 255
247 251 255
247 250 255
248 251 255
248 251 255
248 251 255
248 251 255
248 251 255
248 251 255
249 251 255
249 252 255
249 251 254
242 239 229
228 209 161
225 198 123
222 195 114
221 194 114
221 194 114
219 193 114
219 193 114
218 192 114
218 192 114
218 192 114
218 192 114
218 193 114
218 193 114
219 193 114
219 193 114
220 194 114
222 194 114
223 195 114
224 197 118
229 209 159
244 240 232
249 251 254
249 252 255
249 251 255
249 251 255
248 251 255
248 251 255
248 251 255
248 251 255
248 251 255
